<svg xmlns="http://www.w3.org/2000/svg" viewBox="0 0 24 24" role="img">
  <title>Xiaomi MiMo</title>
  <!-- Compact app-size treatment of the M paths from the official MiMo wordmark. -->
  <rect x="1" y="1" width="22" height="22" rx="4" fill="currentColor"/>
  <svg x="3" y="3" width="18" height="18" viewBox="72 0 17 16" preserveAspectRatio="xMidYMid meet">
    <path fill="#fff" d="M73.7449 15.9987C73.4083 15.998 73.0857 15.8638 72.8479 15.6256C72.6101 15.3873 72.4766 15.0644 72.4766 14.7278V7.165C72.4914 6.83757 72.632 6.52848 72.869 6.30203C73.1059 6.07559 73.4211 5.94922 73.7488 5.94922C74.0766 5.94922 74.3918 6.07559 74.6287 6.30203C74.8657 6.52848 75.0062 6.83757 75.0211 7.165V14.7278C75.0208 14.895 74.9875 15.0606 74.9232 15.215C74.8588 15.3693 74.7647 15.5095 74.6462 15.6276C74.5277 15.7456 74.3871 15.8391 74.2325 15.9028C74.0778 15.9665 73.9122 15.9991 73.7449 15.9987Z"/>
    <path fill="#fff" d="M87.3607 15.9993C87.0234 15.9993 86.6998 15.8655 86.4611 15.6272C86.2223 15.389 86.0878 15.0657 86.0871 14.7284V4.67881L81.4654 9.45281C81.2304 9.69657 80.9081 9.83697 80.5695 9.84312C80.231 9.84928 79.9038 9.72069 79.6601 9.48563C79.4163 9.25058 79.2759 8.92832 79.2697 8.58976C79.2667 8.42211 79.2967 8.25551 79.358 8.09947C79.4194 7.94342 79.5108 7.80098 79.6272 7.68028L86.4469 0.661082C86.6229 0.478921 86.8494 0.35354 87.0973 0.301033C87.3451 0.248526 87.603 0.271291 87.8378 0.366403C88.0727 0.461516 88.2737 0.624637 88.4151 0.834827C88.5566 1.04502 88.632 1.29268 88.6317 1.54603V14.7284C88.6317 15.0655 88.4978 15.3887 88.2594 15.6271C88.021 15.8654 87.6978 15.9993 87.3607 15.9993Z"/>
    <path fill="#fff" d="M80.5514 9.82621C80.3824 9.82749 80.2149 9.79518 80.0584 9.73117C79.902 9.66716 79.7599 9.57272 79.6402 9.45332L72.8337 2.4315C72.599 2.18948 72.4701 1.86414 72.4752 1.52705C72.4804 1.18996 72.6193 0.868726 72.8613 0.634023C73.1033 0.399319 73.4287 0.270369 73.7658 0.27554C74.1028 0.280711 74.4241 0.419579 74.6588 0.661595L81.4653 7.66767C81.6389 7.84735 81.7558 8.07413 81.8015 8.31977C81.8472 8.56541 81.8196 8.81906 81.7222 9.04914C81.6248 9.27922 81.4618 9.47557 81.2537 9.61374C81.0455 9.75191 80.8013 9.8258 80.5514 9.82621Z"/>
  </svg>
</svg>
